<svg height='300px' width='300px'  fill="#000000" xmlns="http://www.w3.org/2000/svg" xmlns:xlink="http://www.w3.org/1999/xlink" version="1.1" x="0px" y="0px" viewBox="0 0 800 800" enable-background="new 0 0 800 800" xml:space="preserve"><g><rect x="509.3" y="359.6" transform="matrix(0.7071 0.7071 -0.7071 0.7071 420.4354 -253.0542)" width="12.8" height="42.7"></rect><rect x="277.5" y="591.4" transform="matrix(-0.7071 -0.7071 0.7071 -0.7071 51.3728 1246.8063)" width="12.8" height="42.7"></rect><rect x="493.3" y="606.3" transform="matrix(-0.7071 -0.7071 0.7071 -0.7071 445.3126 1409.9623)" width="42.7" height="12.8"></rect><rect x="389.3" y="311.1" width="21.4" height="71.3"></rect><rect x="389.3" y="610.4" width="21.4" height="71.3"></rect><rect x="513.3" y="486.4" width="71.3" height="21.4"></rect><rect x="214" y="486.4" width="71.3" height="21.4"></rect><path d="M400,703c-114.7,0-208.1-93.3-208.1-208.1S285.3,286.9,400,286.9s208.1,93.3,208.1,208.1S514.7,703,400,703 M315.6,152.9   c0-46.6,37.9-84.4,84.4-84.4c46.6,0,84.4,37.9,84.4,84.4c0,35.8-22.4,66.5-54,78.7c-0.9-0.1-1.8-0.2-2.7-0.3v-39.9h15   c3.2,0,5-3.3,5-6.4v-28.5c0-3.2-1.8-5-5-5h-85.5c-3.1,0-6.4,1.8-6.4,5V185c0,3.2,3.3,6.4,6.4,6.4h13.5v40.1c-0.4,0-0.8,0.1-1.3,0.1   C338,219.4,315.6,188.7,315.6,152.9 M593.5,314l26.9-26.9l10.6,10.6c1.1,1.1,2.5,1.7,4,1.7c1.5,0,3-0.6,4-1.7l20.1-20.2   c2.2-2.2,2.2-5.8,0-8.1L598.8,209c-1.1-1.1-2.5-1.7-4-1.7s-3,0.6-4,1.7l-20.1,20.1c-1.1,1.1-1.7,2.5-1.7,4s0.6,3,1.7,4l9.6,9.6   l-29.9,29.9c-23.6-16.3-49.9-28.9-78.2-36.9c25-20.7,40.9-52,40.9-86.9C512.9,90.7,462.3,40,400,40S287.1,90.7,287.1,152.9   c0,34.9,15.9,66.2,40.9,86.9c-111.3,31.5-193,133.9-193,255.1C134.9,641.1,253.8,760,400,760s265.1-118.9,265.1-265.1   C665.1,425.1,637.9,361.4,593.5,314"></path><path d="M426.9,465.6L277.8,356.8c-2-1.5-4.4-2.2-6.7-2.2c-2.9,0-5.9,1.1-8.1,3.3c-4,4-4.5,10.2-1.2,14.8l108.8,149.1   c0.6,0.9,1.4,1.7,2.3,2.4c6.2,4.7,13.5,7.1,21.2,7.1c15.4,0,30.8-10,38.2-24.9c6.5-13,5.3-27.4-3.1-38.5   C428.6,467,427.8,466.2,426.9,465.6"></path></g></svg>